<svg width="218" height="176" viewBox="0 0 218 176" fill="none" xmlns="http://www.w3.org/2000/svg">
<path d="M111.645 0.383707L104.552 2.02918L17.1602 22.3019L10.0669 23.9473C6.62385 24.7497 3.67525 26.7479 1.86798 29.5035C0.0607088 32.2591 -0.45765 35.5471 0.426627 38.6461L31.1849 145.939C32.0769 149.036 34.2983 151.688 37.3616 153.314C40.4249 154.94 44.08 155.406 47.525 154.61L47.5433 154.606L149.085 131.051L149.103 131.047C152.546 130.244 155.495 128.246 157.302 125.491C159.109 122.735 159.628 119.447 158.743 116.348L127.985 9.05563C127.093 5.95845 124.872 3.30604 121.808 1.6803C118.745 0.0545609 115.09 -0.411738 111.645 0.383707Z" fill="#F2F2F2"/>
<path d="M112.609 3.74762L104.208 5.69658L19.4326 25.3623L11.0311 27.3113C8.57927 27.8827 6.4795 29.3056 5.19249 31.268C3.90548 33.2303 3.53634 35.5717 4.16606 37.7786L34.9243 145.071C35.5596 147.277 37.1414 149.165 39.3229 150.323C41.5043 151.481 44.1072 151.813 46.5605 151.246L46.5788 151.242L148.12 127.687L148.139 127.683C150.59 127.111 152.69 125.688 153.977 123.726C155.264 121.764 155.633 119.422 155.004 117.216L124.245 9.9231C123.61 7.71755 122.028 5.82872 119.847 4.67099C117.665 3.51327 115.063 3.18119 112.609 3.74762V3.74762Z" fill="#867F7F"/>
<path d="M106.265 38.4917L54.898 50.4077C54.3243 50.5408 53.7153 50.4634 53.205 50.1926C52.6947 49.9218 52.3249 49.4797 52.177 48.9636C52.029 48.4475 52.115 47.8997 52.4161 47.4407C52.7172 46.9816 53.2086 46.649 53.7823 46.5159L105.15 34.5999C105.723 34.4674 106.332 34.545 106.842 34.8159C107.351 35.0868 107.721 35.5287 107.869 36.0445C108.017 36.5602 107.931 37.1077 107.63 37.5666C107.329 38.0255 106.839 38.3583 106.265 38.4917V38.4917Z" fill="#F2F2F2"/>
<path d="M117.071 42.9892L56.7808 56.9751C56.2071 57.1082 55.5981 57.0308 55.0878 56.76C54.5775 56.4892 54.2077 56.0471 54.0598 55.531C53.9118 55.0149 53.9979 54.4671 54.2989 54.0081C54.6 53.549 55.0914 53.2164 55.6652 53.0833L115.956 39.0974C116.529 38.9643 117.138 39.0416 117.649 39.3125C118.159 39.5833 118.529 40.0254 118.677 40.5415C118.825 41.0575 118.739 41.6054 118.438 42.0644C118.137 42.5234 117.645 42.8561 117.071 42.9892V42.9892Z" fill="#F2F2F2"/>
<path d="M114.703 67.9238L63.3355 79.8397C63.0515 79.9056 62.7557 79.9205 62.4652 79.8836C62.1748 79.8467 61.8952 79.7587 61.6425 79.6246C61.3898 79.4905 61.169 79.313 60.9926 79.1021C60.8162 78.8912 60.6877 78.6512 60.6145 78.3956C60.5412 78.1401 60.5246 77.8741 60.5657 77.6128C60.6067 77.3514 60.7045 77.1 60.8536 76.8727C61.0027 76.6454 61.2001 76.4467 61.4345 76.288C61.6689 76.1294 61.9358 76.0138 62.2198 75.9479L113.587 64.0319C113.871 63.966 114.167 63.9511 114.457 63.988C114.748 64.0249 115.028 64.1129 115.28 64.247C115.533 64.3811 115.754 64.5587 115.93 64.7696C116.106 64.9804 116.235 65.2205 116.308 65.476C116.381 65.7316 116.398 65.9976 116.357 66.2589C116.316 66.5202 116.218 66.7717 116.069 66.999C115.92 67.2263 115.723 67.4249 115.488 67.5836C115.254 67.7423 114.987 67.8579 114.703 67.9238V67.9238Z" fill="#F2F2F2"/>
<path d="M125.509 72.4212L65.2183 86.4071C64.9343 86.473 64.6385 86.488 64.3481 86.4511C64.0576 86.4141 63.778 86.3261 63.5253 86.192C63.2727 86.0579 63.0518 85.8804 62.8754 85.6695C62.699 85.4586 62.5705 85.2186 62.4973 84.963C62.424 84.7075 62.4074 84.4415 62.4485 84.1802C62.4895 83.9189 62.5873 83.6674 62.7364 83.4401C62.8855 83.2128 63.0829 83.0141 63.3173 82.8555C63.5517 82.6968 63.8186 82.5812 64.1026 82.5153L124.393 68.5294C124.967 68.3963 125.576 68.4737 126.086 68.7445C126.597 69.0153 126.966 69.4574 127.114 69.9735C127.262 70.4896 127.176 71.0374 126.875 71.4964C126.574 71.9555 126.083 72.2881 125.509 72.4212Z" fill="#F2F2F2"/>
<path d="M123.14 97.3558L71.773 109.272C71.1994 109.404 70.5908 109.327 70.0808 109.056C69.5709 108.785 69.2013 108.343 69.0534 107.827C68.9056 107.311 68.9914 106.764 69.2922 106.305C69.5929 105.846 70.084 105.513 70.6573 105.38L122.025 93.4639C122.598 93.3308 123.207 93.4082 123.718 93.679C124.228 93.9499 124.598 94.3919 124.746 94.908C124.894 95.4241 124.808 95.9719 124.507 96.431C124.205 96.89 123.714 97.2227 123.14 97.3558Z" fill="#F2F2F2"/>
<path d="M133.946 101.853L73.6558 115.839C73.3716 115.905 73.0758 115.92 72.7851 115.884C72.4944 115.847 72.2146 115.759 71.9617 115.625C71.7089 115.491 71.4878 115.313 71.3113 115.102C71.1347 114.891 71.0061 114.651 70.9328 114.395C70.8595 114.14 70.843 113.874 70.8841 113.612C70.9252 113.351 71.0232 113.099 71.1725 112.872C71.3217 112.644 71.5194 112.446 71.754 112.287C71.9887 112.129 72.2558 112.013 72.5401 111.947L132.831 97.9614C133.404 97.8283 134.013 97.9057 134.524 98.1765C135.034 98.4473 135.404 98.8894 135.552 99.4055C135.7 99.9216 135.614 100.469 135.313 100.928C135.012 101.387 134.52 101.72 133.946 101.853V101.853Z" fill="#F2F2F2"/>
<path d="M46.1289 62.6258L27.9505 66.8427C27.6754 66.9063 27.3835 66.869 27.1389 66.7392C26.8943 66.6094 26.7169 66.3976 26.6457 66.1503L22.4729 51.5944C22.4023 51.347 22.4437 51.0844 22.588 50.8644C22.7323 50.6443 22.9677 50.4848 23.2427 50.4207L41.4211 46.2038C41.6962 46.1402 41.988 46.1775 42.2326 46.3073C42.4772 46.4371 42.6546 46.6489 42.7258 46.8962L46.8987 61.4521C46.9693 61.6996 46.9279 61.9621 46.7836 62.1821C46.6393 62.4022 46.4038 62.5617 46.1289 62.6258V62.6258Z" fill="#E6E6E6"/>
<path d="M54.5664 92.0578L36.388 96.2747C36.1129 96.3382 35.821 96.301 35.5764 96.1712C35.3318 96.0414 35.1544 95.8296 35.0832 95.5823L30.9104 81.0264C30.8398 80.7789 30.8812 80.5164 31.0255 80.2964C31.1698 80.0763 31.4052 79.9168 31.6802 79.8527L49.8586 75.6358C50.1336 75.5722 50.4255 75.6095 50.6701 75.7393C50.9147 75.8691 51.0921 76.0809 51.1633 76.3282L55.3361 90.8841C55.4067 91.1315 55.3654 91.3941 55.221 91.6141C55.0767 91.8341 54.8413 91.9937 54.5664 92.0578V92.0578Z" fill="#E6E6E6"/>
<path d="M63.0039 121.49L44.8255 125.707C44.5504 125.77 44.2585 125.733 44.0139 125.603C43.7693 125.473 43.5919 125.262 43.5207 125.014L39.3479 110.458C39.2773 110.211 39.3187 109.948 39.463 109.728C39.6073 109.508 39.8427 109.349 40.1177 109.285L58.2961 105.068C58.5712 105.004 58.863 105.041 59.1076 105.171C59.3522 105.301 59.5296 105.513 59.6008 105.76L63.7737 120.316C63.8443 120.564 63.8029 120.826 63.6586 121.046C63.5143 121.266 63.2788 121.426 63.0039 121.49V121.49Z" fill="#E6E6E6"/>
<path d="M182.49 27.581H77.5892C74.0325 27.5846 70.6227 28.8572 68.1077 31.1195C65.5927 33.3818 64.1781 36.4492 64.1741 39.6486V150.451C64.1781 153.651 65.5927 156.718 68.1077 158.98C70.6227 161.243 74.0325 162.515 77.5892 162.519H182.49C186.047 162.515 189.457 161.243 191.972 158.98C194.487 156.718 195.902 153.651 195.906 150.451V39.6486C195.902 36.4492 194.487 33.3818 191.972 31.1195C189.457 28.8572 186.047 27.5846 182.49 27.581V27.581Z" fill="#E6E6E6"/>
<path d="M182.491 31.055H77.5892C75.0563 31.0575 72.6281 31.9638 70.8371 33.5748C69.0461 35.1859 68.0387 37.3702 68.0359 39.6486V150.451C68.0387 152.73 69.0461 154.914 70.8371 156.525C72.6281 158.136 75.0563 159.042 77.5892 159.045H182.491C185.023 159.042 187.452 158.136 189.243 156.525C191.033 154.914 192.041 152.73 192.044 150.451V39.6486C192.041 37.3702 191.033 35.1859 189.243 33.5749C187.452 31.9638 185.023 31.0576 182.491 31.055V31.055Z" fill="#867F7F"/>
<path d="M193.511 176C207.036 176 218 166.137 218 153.971C218 141.805 207.036 131.942 193.511 131.942C179.986 131.942 169.022 141.805 169.022 153.971C169.022 166.137 179.986 176 193.511 176Z" fill="#AD3906"/>
<path d="M205.223 151.098H196.705V143.435C196.705 142.673 196.369 141.943 195.77 141.404C195.171 140.865 194.358 140.562 193.511 140.562C192.664 140.562 191.852 140.865 191.252 141.404C190.653 141.943 190.317 142.673 190.317 143.435V151.098H181.799C180.952 151.098 180.139 151.4 179.54 151.939C178.941 152.478 178.605 153.209 178.605 153.971C178.605 154.733 178.941 155.464 179.54 156.003C180.139 156.542 180.952 156.844 181.799 156.844H190.317V164.507C190.317 165.269 190.653 166 191.252 166.538C191.852 167.077 192.664 167.38 193.511 167.38C194.358 167.38 195.171 167.077 195.77 166.538C196.369 166 196.705 165.269 196.705 164.507V156.844H205.223C206.07 156.844 206.883 156.542 207.482 156.003C208.081 155.464 208.417 154.733 208.417 153.971C208.417 153.209 208.081 152.478 207.482 151.939C206.883 151.4 206.07 151.098 205.223 151.098V151.098Z" fill="white"/>
<path d="M166.703 91.9407H113.655C113.361 91.941 113.071 91.8893 112.799 91.7884C112.528 91.6876 112.281 91.5396 112.074 91.3529C111.866 91.1663 111.701 90.9447 111.589 90.7007C111.476 90.4567 111.418 90.1952 111.418 89.9312C111.418 89.6671 111.476 89.4056 111.589 89.1616C111.701 88.9176 111.866 88.696 112.074 88.5094C112.281 88.3227 112.528 88.1748 112.799 88.0739C113.071 87.973 113.361 87.9213 113.655 87.9216H166.703C167.295 87.9222 167.862 88.1341 168.281 88.511C168.699 88.8878 168.934 89.3986 168.934 89.9312C168.934 90.4637 168.699 90.9746 168.281 91.3514C167.862 91.7282 167.295 91.9401 166.703 91.9407V91.9407Z" fill="#E6E6E6"/>
<path d="M175.918 98.7231H113.655C113.361 98.7234 113.071 98.6716 112.799 98.5707C112.528 98.4699 112.281 98.3219 112.074 98.1353C111.866 97.9486 111.701 97.727 111.589 97.483C111.476 97.2391 111.418 96.9776 111.418 96.7135C111.418 96.4494 111.476 96.1879 111.589 95.9439C111.701 95.7 111.866 95.4783 112.074 95.2917C112.281 95.1051 112.528 94.9571 112.799 94.8562C113.071 94.7554 113.361 94.7036 113.655 94.7039H175.918C176.51 94.7039 177.079 94.9156 177.498 95.2925C177.917 95.6694 178.152 96.1805 178.152 96.7135C178.152 97.2465 177.917 97.7576 177.498 98.1345C177.079 98.5113 176.51 98.7231 175.918 98.7231Z" fill="#E6E6E6"/>
<path d="M166.703 122.336H113.655C113.361 122.336 113.071 122.284 112.799 122.183C112.528 122.082 112.281 121.935 112.074 121.748C111.866 121.561 111.701 121.34 111.589 121.096C111.476 120.852 111.418 120.59 111.418 120.326C111.418 120.062 111.476 119.801 111.589 119.557C111.701 119.313 111.866 119.091 112.074 118.904C112.281 118.718 112.528 118.57 112.799 118.469C113.071 118.368 113.361 118.316 113.655 118.317H166.703C167.295 118.317 167.863 118.528 168.282 118.905C168.701 119.282 168.937 119.793 168.937 120.326C168.937 120.859 168.701 121.37 168.282 121.747C167.863 122.124 167.295 122.336 166.703 122.336V122.336Z" fill="#E6E6E6"/>
<path d="M175.918 129.118H113.655C113.361 129.118 113.071 129.067 112.799 128.966C112.528 128.865 112.281 128.717 112.074 128.53C111.866 128.344 111.701 128.122 111.589 127.878C111.476 127.634 111.418 127.373 111.418 127.108C111.418 126.844 111.476 126.583 111.589 126.339C111.701 126.095 111.866 125.873 112.074 125.687C112.281 125.5 112.528 125.352 112.799 125.251C113.071 125.15 113.361 125.099 113.655 125.099H175.918C176.212 125.099 176.502 125.15 176.774 125.251C177.045 125.352 177.292 125.5 177.499 125.687C177.707 125.873 177.872 126.095 177.984 126.339C178.097 126.583 178.154 126.844 178.154 127.108C178.154 127.373 178.097 127.634 177.984 127.878C177.872 128.122 177.707 128.344 177.499 128.53C177.292 128.717 177.045 128.865 176.774 128.966C176.502 129.067 176.212 129.118 175.918 129.118Z" fill="#E6E6E6"/>
<path d="M101.772 101.802H82.9988C82.7148 101.802 82.4425 101.7 82.2417 101.519C82.0409 101.339 81.9279 101.094 81.9276 100.838V85.8063C81.9279 85.5508 82.0409 85.3059 82.2417 85.1252C82.4425 84.9446 82.7148 84.843 82.9988 84.8427H101.772C102.056 84.843 102.328 84.9446 102.529 85.1252C102.73 85.3059 102.843 85.5508 102.843 85.8063V100.838C102.843 101.094 102.73 101.339 102.529 101.519C102.328 101.7 102.056 101.802 101.772 101.802V101.802Z" fill="#E6E6E6"/>
<path d="M101.772 132.197H82.9988C82.7148 132.197 82.4425 132.095 82.2417 131.914C82.0409 131.734 81.9279 131.489 81.9276 131.233V116.201C81.9279 115.946 82.0409 115.701 82.2417 115.52C82.4425 115.339 82.7148 115.238 82.9988 115.238H101.772C102.056 115.238 102.328 115.339 102.529 115.52C102.73 115.701 102.843 115.946 102.843 116.201V131.233C102.843 131.489 102.73 131.734 102.529 131.914C102.328 132.095 102.056 132.197 101.772 132.197V132.197Z" fill="#E6E6E6"/>
<path d="M166.762 58.1052H127.652C127.059 58.1052 126.491 57.8935 126.072 57.5166C125.653 57.1398 125.418 56.6286 125.418 56.0956C125.418 55.5627 125.653 55.0515 126.072 54.6746C126.491 54.2978 127.059 54.0861 127.652 54.0861H166.762C167.354 54.0861 167.922 54.2978 168.341 54.6746C168.76 55.0515 168.996 55.5627 168.996 56.0956C168.996 56.6286 168.76 57.1398 168.341 57.5166C167.922 57.8935 167.354 58.1052 166.762 58.1052Z" fill="#CCCCCC"/>
<path d="M175.977 64.8876H127.652C127.358 64.8876 127.068 64.8356 126.797 64.7346C126.526 64.6336 126.279 64.4856 126.072 64.299C125.864 64.1124 125.7 63.8908 125.588 63.647C125.475 63.4032 125.418 63.1419 125.418 62.878C125.418 62.6141 125.475 62.3528 125.588 62.109C125.7 61.8651 125.864 61.6436 126.072 61.457C126.279 61.2704 126.526 61.1224 126.797 61.0214C127.068 60.9204 127.358 60.8684 127.652 60.8684H175.977C176.569 60.8684 177.138 61.0801 177.556 61.457C177.975 61.8339 178.211 62.345 178.211 62.878C178.211 63.411 177.975 63.9221 177.556 64.299C177.138 64.6758 176.569 64.8876 175.977 64.8876V64.8876Z" fill="#CCCCCC"/>
<path d="M118.996 73.1069H82.94C82.656 73.1066 82.3837 73.005 82.1829 72.8244C81.982 72.6437 81.8691 72.3988 81.8688 72.1433V46.8303C81.8691 46.5748 81.982 46.3299 82.1829 46.1492C82.3837 45.9686 82.656 45.867 82.94 45.8667H118.996C119.28 45.867 119.552 45.9686 119.753 46.1492C119.954 46.3299 120.067 46.5748 120.067 46.8303V72.1433C120.067 72.3988 119.954 72.6437 119.753 72.8244C119.552 73.005 119.28 73.1066 118.996 73.1069V73.1069Z" fill="#AD3906"/>
</svg>
